NotoSerif-CondensedSemiBoldItalic.ufo
<glyph name="Eth" format="2">
  <advance width="629"/>
  <unicode hex="00D0"/>
  <anchor x="258" y="0" name="bottom"/>
  <anchor x="410" y="714" name="top"/>
  <anchor x="353" y="357" name="center"/>
  <anchor x="704" y="714" name="topright"/>
  <outline>
    <contour>
      <point x="64" y="345" type="line"/>
      <point x="373" y="345" type="line"/>
      <point x="385" y="402" type="line"/>
      <point x="76" y="402" type="line"/>
    </contour>
    <component base="D"/>
  </outline>
</glyph>
<glyph name="lslash" format="2">
  <advance width="295"/>
  <unicode hex="0142"/>
  <anchor x="90" y="0" name="bottom"/>
  <anchor x="252" y="760" name="top"/>
  <anchor x="204" y="268" name="center"/>
  <anchor x="380" y="760" name="topright"/>
  <outline>
    <contour>
      <point x="4" y="231" type="line"/>
      <point x="72" y="265" type="line"/>
      <point x="216" y="338" type="line"/>
      <point x="300" y="381" type="line"/>
      <point x="316" y="456" type="line"/>
      <point x="232" y="414" type="line"/>
      <point x="88" y="340" type="line"/>
      <point x="20" y="304" type="line"/>
    </contour>
    <component base="l"/>
  </outline>
</glyph>
<glyph name="tbar" format="2">
  <advance width="345"/>
  <unicode hex="0167"/>
  <anchor x="115" y="0" name="bottom"/>
  <anchor x="255" y="659" name="top"/>
  <anchor x="229" y="268" name="center"/>
  <anchor x="382" y="536" name="topright"/>
  <outline>
    <contour>
      <point x="29" y="282" type="line"/>
      <point x="93" y="282" type="line"/>
      <point x="218" y="282" type="line"/>
      <point x="323" y="282" type="line"/>
      <point x="334" y="334" type="line"/>
      <point x="229" y="334" type="line"/>
      <point x="105" y="334" type="line"/>
      <point x="40" y="334" type="line"/>
    </contour>
    <component base="t"/>
  </outline>
</glyph>
<glyph name="uni0191" format="2">
  <advance width="618"/>
  <unicode hex="0191"/>
  <anchor x="109" y="-10" name="bottom"/>
  <anchor x="459" y="714" name="top"/>
  <anchor x="711" y="714" name="topright"/>
  <outline>
    <contour>
      <point x="109" y="-10" type="curve" smooth="yes"/>
      <point x="250" y="-10"/>
      <point x="315" y="59"/>
      <point x="344" y="197" type="curve" smooth="yes"/>
      <point x="370" y="322" type="line"/>
      <point x="562" y="322" type="line"/>
      <point x="574" y="379" type="line"/>
      <point x="383" y="379" type="line"/>
      <point x="440" y="656" type="line"/>
      <point x="546" y="656" type="line" smooth="yes"/>
      <point x="588" y="656"/>
      <point x="604" y="629"/>
      <point x="604" y="594" type="curve" smooth="yes"/>
      <point x="604" y="586"/>
      <point x="600" y="554"/>
      <point x="597" y="531" type="curve"/>
      <point x="658" y="531" type="line"/>
      <point x="694" y="714" type="line"/>
      <point x="242" y="714" type="line"/>
      <point x="230" y="664" type="line"/>
      <point x="241" y="664" type="line" smooth="yes"/>
      <point x="274" y="664"/>
      <point x="299" y="659"/>
      <point x="299" y="630" type="curve" smooth="yes"/>
      <point x="299" y="624"/>
      <point x="296" y="614"/>
      <point x="292" y="596" type="curve" smooth="yes"/>
      <point x="200" y="157" type="line" smooth="yes"/>
      <point x="184" y="79"/>
      <point x="165" y="47"/>
      <point x="118" y="47" type="curve" smooth="yes"/>
      <point x="68" y="47"/>
      <point x="52" y="109"/>
      <point x="55" y="181" type="curve"/>
      <point x="7" y="181"/>
      <point x="-44" y="158"/>
      <point x="-44" y="96" type="curve" smooth="yes"/>
      <point x="-44" y="29"/>
      <point x="16" y="-10"/>
    </contour>
  </outline>
</glyph>
<glyph name="florin" format="2">
  <advance width="406"/>
  <unicode hex="0192"/>
  <anchor x="68" y="-12" name="bottom"/>
  <anchor x="429" y="770" name="top"/>
  <anchor x="580" y="770" name="topright"/>
  <outline>
    <contour>
      <point x="68" y="-12" type="curve" smooth="yes"/>
      <point x="181" y="-12"/>
      <point x="248" y="52"/>
      <point x="280" y="204" type="curve" smooth="yes"/>
      <point x="335" y="471" type="line"/>
      <point x="440" y="471" type="line"/>
      <point x="454" y="536" type="line"/>
      <point x="350" y="536" type="line"/>
      <point x="363" y="600" type="line" smooth="yes"/>
      <point x="379" y="683"/>
      <point x="392" y="712"/>
      <point x="424" y="712" type="curve" smooth="yes"/>
      <point x="455" y="712"/>
      <point x="461" y="667"/>
      <point x="460" y="618" type="curve"/>
      <point x="525" y="618"/>
      <point x="561" y="643"/>
      <point x="561" y="687" type="curve" smooth="yes"/>
      <point x="561" y="735"/>
      <point x="517" y="770"/>
      <point x="432" y="770" type="curve" smooth="yes"/>
      <point x="319" y="770"/>
      <point x="256" y="705"/>
      <point x="228" y="584" type="curve" smooth="yes"/>
      <point x="217" y="536" type="line"/>
      <point x="139" y="515" type="line"/>
      <point x="129" y="471" type="line"/>
      <point x="202" y="471" type="line"/>
      <point x="143" y="188" type="line" smooth="yes"/>
      <point x="120" y="75"/>
      <point x="108" y="46"/>
      <point x="76" y="46" type="curve" smooth="yes"/>
      <point x="45" y="46"/>
      <point x="39" y="91"/>
      <point x="40" y="140" type="curve"/>
      <point x="-22" y="140"/>
      <point x="-49" y="117"/>
      <point x="-49" y="73" type="curve" smooth="yes"/>
      <point x="-49" y="25"/>
      <point x="-14" y="-12"/>
    </contour>
  </outline>
</glyph>
<glyph name="uni0197" format="2">
  <advance width="331"/>
  <unicode hex="0197"/>
  <anchor x="109" y="0" name="bottom"/>
  <anchor x="261" y="714" name="top"/>
  <anchor x="406" y="714" name="topright"/>
  <outline>
    <contour>
      <point x="43" y="342" type="line"/>
      <point x="352" y="342" type="line"/>
      <point x="365" y="403" type="line"/>
      <point x="55" y="403" type="line"/>
    </contour>
    <component base="I"/>
  </outline>
</glyph>
<glyph name="uni01E4" format="2">
  <advance width="653"/>
  <unicode hex="01E4"/>
  <anchor x="270" y="0" name="bottom"/>
  <anchor x="422" y="714" name="top"/>
  <anchor x="728" y="714" name="topright"/>
  <outline>
    <contour>
      <point x="302" y="151" type="line"/>
      <point x="610" y="151" type="line"/>
      <point x="622" y="205" type="line"/>
      <point x="315" y="205" type="line"/>
    </contour>
    <component base="G"/>
  </outline>
</glyph>
<glyph name="uni01E5" format="2">
  <advance width="474"/>
  <unicode hex="01E5"/>
  <anchor x="129" y="-240" name="bottom"/>
  <anchor x="304" y="583" name="top"/>
  <anchor x="511" y="536" name="topright"/>
  <outline>
    <contour>
      <point x="141" y="-120" type="line"/>
      <point x="443" y="-120" type="line"/>
      <point x="455" y="-67" type="line"/>
      <point x="152" y="-67" type="line"/>
    </contour>
    <component base="g"/>
  </outline>
</glyph>
<glyph name="uni023B" format="2">
  <advance width="547"/>
  <unicode hex="023B"/>
  <anchor x="278" y="0" name="bottom"/>
  <anchor x="426" y="714" name="top"/>
  <anchor x="622" y="714" name="topright"/>
  <outline>
    <contour>
      <point x="103" y="-86" type="line"/>
      <point x="163" y="-86" type="line"/>
      <point x="524" y="760" type="line"/>
      <point x="463" y="760" type="line"/>
    </contour>
    <component base="C"/>
  </outline>
</glyph>
<glyph name="uni023C" format="2">
  <advance width="434"/>
  <unicode hex="023C"/>
  <anchor x="153" y="-178" name="bottom"/>
  <anchor x="349" y="714" name="top"/>
  <anchor x="471" y="536" name="topright"/>
  <outline>
    <contour>
      <point x="48" y="-178" type="line"/>
      <point x="107" y="-178" type="line"/>
      <point x="451" y="714" type="line"/>
      <point x="392" y="714" type="line"/>
    </contour>
    <component base="c"/>
  </outline>
</glyph>
<glyph name="uni023D" format="2">
  <advance width="534"/>
  <unicode hex="023D"/>
  <anchor x="210" y="0" name="bottom"/>
  <anchor x="362" y="714" name="top"/>
  <anchor x="305" y="357" name="center"/>
  <anchor x="609" y="714" name="topright"/>
  <outline>
    <contour>
      <point x="54" y="344" type="line"/>
      <point x="150" y="344" type="line"/>
      <point x="261" y="344" type="line"/>
      <point x="387" y="344" type="line"/>
      <point x="400" y="402" type="line"/>
      <point x="277" y="402" type="line"/>
      <point x="141" y="402" type="line"/>
      <point x="66" y="402" type="line"/>
    </contour>
    <component base="L"/>
  </outline>
</glyph>
<glyph name="uni023E" format="2">
  <advance width="535"/>
  <unicode hex="023E"/>
  <anchor x="210" y="0" name="bottom"/>
  <anchor x="362" y="714" name="top"/>
  <anchor x="305" y="357" name="center"/>
  <anchor x="610" y="714" name="topright"/>
  <outline>
    <contour>
      <point x="-100" y="-76" type="line"/>
      <point x="-32" y="-76" type="line"/>
      <point x="629" y="760" type="line"/>
      <point x="561" y="760" type="line"/>
    </contour>
    <component base="T"/>
  </outline>
</glyph>
<glyph name="uni0243" format="2">
  <advance width="556"/>
  <unicode hex="0243"/>
  <anchor x="221" y="0" name="bottom"/>
  <anchor x="373" y="714" name="top"/>
  <anchor x="631" y="714" name="topright"/>
  <outline>
    <contour>
      <point x="12" y="175" type="line"/>
      <point x="313" y="175" type="line"/>
      <point x="325" y="231" type="line"/>
      <point x="24" y="231" type="line"/>
    </contour>
    <component base="B"/>
  </outline>
</glyph>
<glyph name="uni0246" format="2">
  <advance width="526"/>
  <unicode hex="0246"/>
  <anchor x="206" y="0" name="bottom"/>
  <anchor x="358" y="714" name="top"/>
  <anchor x="601" y="714" name="topright"/>
  <outline>
    <contour>
      <point x="131" y="-90" type="line"/>
      <point x="193" y="-90" type="line"/>
      <point x="543" y="760" type="line"/>
      <point x="482" y="760" type="line"/>
    </contour>
    <component base="E"/>
  </outline>
</glyph>
<glyph name="uni0247" format="2">
  <advance width="440"/>
  <unicode hex="0247"/>
  <anchor x="125" y="-178" name="bottom"/>
  <anchor x="312" y="701" name="top"/>
  <anchor x="484" y="536" name="topright"/>
  <outline>
    <contour>
      <point x="49" y="-178" type="line"/>
      <point x="103" y="-178" type="line"/>
      <point x="409" y="701" type="line"/>
      <point x="356" y="701" type="line"/>
    </contour>
    <component base="e"/>
  </outline>
</glyph>
<glyph name="uni0249" format="2">
  <advance width="281"/>
  <unicode hex="0249"/>
  <anchor x="33" y="-240" name="bottom"/>
  <anchor x="247" y="766" name="top"/>
  <anchor x="367" y="766" name="topright"/>
  <outline>
    <contour>
      <point x="7" y="254" type="line"/>
      <point x="287" y="254" type="line"/>
      <point x="299" y="309" type="line"/>
      <point x="18" y="309" type="line"/>
    </contour>
    <component base="j"/>
  </outline>
</glyph>
<glyph name="uni024D" format="2">
  <advance width="459"/>
  <unicode hex="024D"/>
  <anchor x="173" y="0" name="bottom"/>
  <anchor x="287" y="536" name="top"/>
  <anchor x="496" y="536" name="topright"/>
  <outline>
    <contour>
      <point x="9" y="260" type="line"/>
      <point x="325" y="260" type="line"/>
      <point x="337" y="314" type="line"/>
      <point x="22" y="314" type="line"/>
    </contour>
    <component base="r"/>
  </outline>
</glyph>
<glyph name="uni024E" format="2">
  <advance width="571"/>
  <unicode hex="024E"/>
  <anchor x="229" y="0" name="bottom"/>
  <anchor x="381" y="714" name="top"/>
  <anchor x="646" y="714" name="topright"/>
  <outline>
    <contour>
      <point x="74" y="503" type="line"/>
      <point x="626" y="503" type="line"/>
      <point x="639" y="560" type="line"/>
      <point x="86" y="560" type="line"/>
    </contour>
    <component base="Y"/>
  </outline>
</glyph>
<glyph name="uni024F" format="2">
  <advance width="485"/>
  <unicode hex="024F"/>
  <anchor x="30" y="-240" name="bottom"/>
  <anchor x="276" y="536" name="top"/>
  <anchor x="512" y="536" name="topright"/>
  <outline>
    <contour>
      <point x="9" y="301" type="line"/>
      <point x="510" y="301" type="line"/>
      <point x="522" y="354" type="line"/>
      <point x="21" y="354" type="line"/>
    </contour>
    <component base="y"/>
  </outline>
</glyph>
<glyph name="uni025F" format="2">
  <advance width="281"/>
  <unicode hex="025F"/>
  <anchor x="33" y="-240" name="bottom"/>
  <anchor x="198" y="536" name="top"/>
  <anchor x="308" y="536" name="topright"/>
  <outline>
    <contour>
      <point x="-3" y="253" type="line"/>
      <point x="300" y="253" type="line"/>
      <point x="313" y="311" type="line"/>
      <point x="11" y="311" type="line"/>
    </contour>
    <component base="jdotless"/>
  </outline>
</glyph>
<glyph name="uni0289" format="2">
  <advance width="557"/>
  <unicode hex="0289"/>
  <anchor x="222" y="0" name="bottom"/>
  <anchor x="336" y="536" name="top"/>
  <anchor x="594" y="536" name="topright"/>
  <outline>
    <contour>
      <point x="10" y="270" type="line"/>
      <point x="564" y="270" type="line"/>
      <point x="578" y="324" type="line"/>
      <point x="22" y="324" type="line"/>
    </contour>
    <component base="u"/>
  </outline>
</glyph>
<glyph name="uni02A1" format="2">
  <advance width="455"/>
  <unicode hex="02A1"/>
  <anchor x="141" y="0" name="bottom"/>
  <anchor x="314" y="768" name="top"/>
  <anchor x="569" y="760" name="topright"/>
  <outline>
    <contour>
      <point x="35" y="181" type="line"/>
      <point x="324" y="181" type="line"/>
      <point x="336" y="236" type="line"/>
      <point x="47" y="236" type="line"/>
    </contour>
    <component base="uni0294"/>
  </outline>
</glyph>
<glyph name="uni02A2" format="2">
  <advance width="454"/>
  <unicode hex="02A2"/>
  <anchor x="170" y="0" name="bottom"/>
  <anchor x="334" y="768" name="top"/>
  <outline>
    <contour>
      <point x="73" y="181" type="line"/>
      <point x="361" y="181" type="line"/>
      <point x="373" y="236" type="line"/>
      <point x="85" y="236" type="line"/>
    </contour>
    <component base="uni0295"/>
  </outline>
</glyph>
<glyph name="macron" format="2">
  <advance width="316"/>
  <unicode hex="02C9"/>
  <outline>
    <contour>
      <point x="112" y="606" type="line"/>
      <point x="346" y="606" type="line"/>
      <point x="363" y="679" type="line"/>
      <point x="129" y="679" type="line"/>
    </contour>
  </outline>
</glyph>
<glyph name="uni02D5" format="2">
  <advance width="272"/>
  <unicode hex="02D5"/>
  <outline>
    <contour>
      <point x="98" y="196" type="line"/>
      <point x="145" y="196" type="line"/>
      <point x="167" y="301" type="line"/>
      <point x="249" y="301" type="line"/>
      <point x="259" y="348" type="line"/>
      <point x="47" y="348" type="line"/>
      <point x="37" y="301" type="line"/>
      <point x="120" y="301" type="line"/>
    </contour>
  </outline>
</glyph>
<glyph name="uni0374" format="2">
  <advance width="200"/>
  <unicode hex="0374"/>
  <outline>
    <contour>
      <point x="73" y="520" type="line"/>
      <point x="135" y="520" type="line"/>
      <point x="182" y="570"/>
      <point x="239" y="661"/>
      <point x="266" y="703" type="curve"/>
      <point x="268" y="714" type="line"/>
      <point x="156" y="714" type="line"/>
      <point x="144" y="673"/>
      <point x="109" y="588"/>
      <point x="75" y="535" type="curve"/>
    </contour>
  </outline>
</glyph>
<glyph name="uni0375" format="2">
  <advance width="201"/>
  <unicode hex="0375"/>
  <outline>
    <contour>
      <point x="-115" y="-240" type="line"/>
      <point x="0" y="-240" type="line"/>
      <point x="10" y="-199"/>
      <point x="46" y="-113"/>
      <point x="80" y="-61" type="curve"/>
      <point x="83" y="-46" type="line"/>
      <point x="20" y="-46" type="line"/>
      <point x="-27" y="-96"/>
      <point x="-85" y="-187"/>
      <point x="-113" y="-229" type="curve"/>
    </contour>
  </outline>
</glyph>
<glyph name="afii10088" format="2">
  <advance width="557"/>
  <unicode hex="0446"/>
  <anchor x="173" y="-230" name="bottom"/>
  <anchor x="336" y="536" name="top"/>
  <anchor x="594" y="536" name="topright"/>
  <outline>
    <contour>
      <point x="399" y="-230" type="curve" smooth="yes"/>
      <point x="489" y="-230"/>
      <point x="514" y="-141"/>
      <point x="546" y="56" type="curve"/>
      <point x="527" y="88" type="line"/>
      <point x="483" y="6" type="line"/>
      <point x="444" y="-102"/>
      <point x="415" y="-152"/>
      <point x="364" y="-152" type="curve" smooth="yes"/>
      <point x="336" y="-152"/>
      <point x="317" y="-144"/>
      <point x="298" y="-138" type="curve"/>
      <point x="279" y="-192" type="line"/>
      <point x="315" y="-213"/>
      <point x="347" y="-230"/>
    </contour>
    <component base="u"/>
  </outline>
</glyph>
<glyph name="afii10091" format="2">
  <advance width="806"/>
  <unicode hex="0449"/>
  <anchor x="346" y="0" name="bottom"/>
  <anchor x="460" y="536" name="top"/>
  <outline>
    <contour>
      <point x="638" y="-227" type="curve" smooth="yes"/>
      <point x="728" y="-227"/>
      <point x="753" y="-141"/>
      <point x="789" y="56" type="curve"/>
      <point x="771" y="87" type="line"/>
      <point x="725" y="6" type="line"/>
      <point x="683" y="-102"/>
      <point x="654" y="-150"/>
      <point x="602" y="-150" type="curve" smooth="yes"/>
      <point x="576" y="-150"/>
      <point x="556" y="-142"/>
      <point x="537" y="-136" type="curve"/>
      <point x="518" y="-189" type="line"/>
      <point x="555" y="-211"/>
      <point x="588" y="-227"/>
    </contour>
    <component base="afii10090"/>
  </outline>
</glyph>
<glyph name="uni0463" format="2">
  <advance width="492"/>
  <unicode hex="0463"/>
  <anchor x="189" y="0" name="bottom"/>
  <anchor x="351" y="760" name="top"/>
  <outline>
    <contour>
      <point x="247" y="-10" type="curve" smooth="yes"/>
      <point x="366" y="-10"/>
      <point x="468" y="54"/>
      <point x="468" y="176" type="curve" smooth="yes"/>
      <point x="468" y="264"/>
      <point x="419" y="313"/>
      <point x="306" y="313" type="curve" smooth="yes"/>
      <point x="289" y="313"/>
      <point x="259" y="311"/>
      <point x="227" y="307" type="curve"/>
      <point x="259" y="461" type="line"/>
      <point x="386" y="461" type="line"/>
      <point x="397" y="512" type="line"/>
      <point x="271" y="512" type="line"/>
      <point x="323" y="760" type="line"/>
      <point x="122" y="760" type="line"/>
      <point x="111" y="710" type="line"/>
      <point x="132" y="710" type="line" smooth="yes"/>
      <point x="157" y="710"/>
      <point x="171" y="704"/>
      <point x="171" y="679" type="curve" smooth="yes"/>
      <point x="171" y="662"/>
      <point x="165" y="644"/>
      <point x="160" y="616" type="curve" smooth="yes"/>
      <point x="138" y="512" type="line"/>
      <point x="70" y="512" type="line"/>
      <point x="59" y="461" type="line"/>
      <point x="128" y="461" type="line"/>
      <point x="87" y="269" type="line" smooth="yes"/>
      <point x="75" y="214"/>
      <point x="66" y="177"/>
      <point x="66" y="137" type="curve" smooth="yes"/>
      <point x="66" y="38"/>
      <point x="128" y="-10"/>
    </contour>
    <contour>
      <point x="254" y="53" type="curve" smooth="yes"/>
      <point x="215" y="53"/>
      <point x="195" y="78"/>
      <point x="195" y="124" type="curve" smooth="yes"/>
      <point x="195" y="149"/>
      <point x="205" y="204"/>
      <point x="213" y="248" type="curve"/>
      <point x="226" y="250"/>
      <point x="242" y="253"/>
      <point x="271" y="253" type="curve" smooth="yes"/>
      <point x="309" y="253"/>
      <point x="332" y="227"/>
      <point x="332" y="173" type="curve" smooth="yes"/>
      <point x="332" y="106"/>
      <point x="307" y="53"/>
    </contour>
  </outline>
</glyph>
<glyph name="uni048E" format="2">
  <advance width="544"/>
  <unicode hex="048E"/>
  <anchor x="215" y="0" name="bottom"/>
  <anchor x="367" y="714" name="top"/>
  <anchor x="619" y="714" name="topright"/>
  <outline>
    <contour>
      <point x="393" y="186" type="line"/>
      <point x="437" y="201" type="line"/>
      <point x="361" y="448" type="line"/>
      <point x="317" y="433" type="line"/>
    </contour>
    <component base="P"/>
  </outline>
</glyph>
<glyph name="uni048F" format="2">
  <advance width="528"/>
  <unicode hex="048F"/>
  <anchor x="48" y="-240" name="bottom"/>
  <anchor x="313" y="536" name="top"/>
  <anchor x="562" y="536" name="topright"/>
  <outline>
    <contour>
      <point x="338" y="-71" type="line"/>
      <point x="378" y="-48" type="line"/>
      <point x="272" y="166" type="line"/>
      <point x="231" y="144" type="line"/>
    </contour>
    <component base="p"/>
  </outline>
</glyph>
<glyph name="uni04B1" format="2">
  <advance width="481"/>
  <unicode hex="04B1"/>
  <anchor x="133" y="-240" name="bottom"/>
  <anchor x="298" y="536" name="top"/>
  <outline>
    <contour>
      <point x="13" y="-51" type="line"/>
      <point x="349" y="-51" type="line"/>
      <point x="360" y="0" type="line"/>
      <point x="24" y="0" type="line"/>
    </contour>
    <component base="uni04AF"/>
  </outline>
</glyph>
<glyph name="uni04BE" format="2">
  <advance width="669"/>
  <unicode hex="04BE"/>
  <anchor x="232" y="-210" name="bottom"/>
  <anchor x="429" y="714" name="top"/>
  <outline>
    <contour>
      <point x="313" y="-210" type="curve"/>
      <point x="370" y="-210" type="line"/>
      <point x="400" y="-74"/>
      <point x="411" y="-24"/>
      <point x="508" y="18" type="curve"/>
      <point x="260" y="30" type="line"/>
      <point x="313" y="-5"/>
      <point x="330" y="-39"/>
      <point x="330" y="-95" type="curve" smooth="yes"/>
      <point x="330" y="-133"/>
      <point x="321" y="-171"/>
    </contour>
    <component base="uni04BC"/>
  </outline>
</glyph>
<glyph name="uni04BF" format="2">
  <advance width="550"/>
  <unicode hex="04BF"/>
  <anchor x="173" y="-210" name="bottom"/>
  <anchor x="332" y="536" name="top"/>
  <outline>
    <contour>
      <point x="258" y="-210" type="curve"/>
      <point x="312" y="-210" type="line"/>
      <point x="340" y="-80"/>
      <point x="348" y="-32"/>
      <point x="418" y="12" type="curve"/>
      <point x="227" y="20" type="line"/>
      <point x="263" y="-4"/>
      <point x="274" y="-43"/>
      <point x="274" y="-86" type="curve" smooth="yes"/>
      <point x="274" y="-126"/>
      <point x="265" y="-167"/>
    </contour>
    <component base="uni04BD"/>
  </outline>
</glyph>
<glyph name="uni051E" format="2">
  <advance width="621"/>
  <unicode hex="051E"/>
  <anchor x="254" y="0" name="bottom"/>
  <anchor x="406" y="714" name="top"/>
  <outline>
    <contour>
      <point x="527" y="418" type="line"/>
      <point x="559" y="456" type="line"/>
      <point x="383" y="612" type="line"/>
      <point x="352" y="575" type="line"/>
    </contour>
    <component base="afii10028"/>
  </outline>
</glyph>
<glyph name="uni051F" format="2">
  <advance width="523"/>
  <unicode hex="051F"/>
  <anchor x="198" y="0" name="bottom"/>
  <anchor x="312" y="536" name="top"/>
  <outline>
    <contour>
      <point x="412" y="296" type="line"/>
      <point x="449" y="324" type="line"/>
      <point x="328" y="500" type="line"/>
      <point x="291" y="471" type="line"/>
    </contour>
    <component base="afii10076"/>
  </outline>
</glyph>
<glyph name="uni1ABA" format="2">
  <unicode hex="1ABA"/>
  <anchor x="-343" y="0" name="_bottom"/>
  <anchor x="-366" y="-282" name="bottom"/>
  <outline>
    <contour>
      <point x="-375" y="-240" type="line"/>
      <point x="-283" y="26" type="line"/>
      <point x="-340" y="46" type="line"/>
      <point x="-432" y="-219" type="line"/>
    </contour>
    <contour>
      <point x="-400" y="-282" type="curve" smooth="yes"/>
      <point x="-368" y="-282"/>
      <point x="-343" y="-257"/>
      <point x="-343" y="-217" type="curve" smooth="yes"/>
      <point x="-343" y="-180"/>
      <point x="-365" y="-158"/>
      <point x="-396" y="-158" type="curve" smooth="yes"/>
      <point x="-428" y="-158"/>
      <point x="-452" y="-183"/>
      <point x="-452" y="-224" type="curve" smooth="yes"/>
      <point x="-452" y="-260"/>
      <point x="-431" y="-282"/>
    </contour>
  </outline>
</glyph>
<glyph name="uni1D03" format="2">
  <advance width="468"/>
  <unicode hex="1D03"/>
  <anchor x="182" y="0" name="bottom"/>
  <anchor x="296" y="536" name="top"/>
  <outline>
    <contour>
      <point x="35" y="257" type="line"/>
      <point x="468" y="257" type="line"/>
      <point x="479" y="304" type="line"/>
      <point x="47" y="304" type="line"/>
    </contour>
    <component base="uni0299"/>
  </outline>
</glyph>
<glyph name="uni1D09" format="2">
  <advance width="313"/>
  <unicode hex="1D09"/>
  <anchor x="57" y="-197" name="bottom"/>
  <anchor x="213" y="536" name="top"/>
  <outline>
    <contour>
      <point x="-6" y="0" type="line"/>
      <point x="236" y="0" type="line"/>
      <point x="246" y="50" type="line"/>
      <point x="229" y="50" type="line" smooth="yes"/>
      <point x="209" y="50"/>
      <point x="196" y="55"/>
      <point x="196" y="77" type="curve" smooth="yes"/>
      <point x="196" y="81"/>
      <point x="199" y="92"/>
      <point x="201" y="104" type="curve"/>
      <point x="276" y="444" type="line" smooth="yes"/>
      <point x="284" y="480"/>
      <point x="306" y="486"/>
      <point x="328" y="486" type="curve" smooth="yes"/>
      <point x="345" y="486" type="line"/>
      <point x="356" y="536" type="line"/>
      <point x="113" y="536" type="line"/>
      <point x="102" y="486" type="line"/>
      <point x="122" y="486" type="line" smooth="yes"/>
      <point x="138" y="486"/>
      <point x="153" y="485"/>
      <point x="153" y="463" type="curve" smooth="yes"/>
      <point x="153" y="455"/>
      <point x="149" y="441"/>
      <point x="146" y="428" type="curve"/>
      <point x="71" y="92" type="line" smooth="yes"/>
      <point x="63" y="54"/>
      <point x="44" y="50"/>
      <point x="22" y="50" type="curve" smooth="yes"/>
      <point x="6" y="50" type="line"/>
    </contour>
    <contour>
      <point x="87" y="-197" type="curve" smooth="yes"/>
      <point x="117" y="-197"/>
      <point x="155" y="-173"/>
      <point x="155" y="-110" type="curve" smooth="yes"/>
      <point x="155" y="-73"/>
      <point x="136" y="-54"/>
      <point x="105" y="-54" type="curve" smooth="yes"/>
      <point x="66" y="-54"/>
      <point x="37" y="-90"/>
      <point x="37" y="-140" type="curve" smooth="yes"/>
      <point x="38" y="-178"/>
      <point x="56" y="-197"/>
    </contour>
  </outline>
</glyph>
<glyph name="uni1D0C" format="2">
  <advance width="447"/>
  <unicode hex="1D0C"/>
  <anchor x="167" y="0" name="bottom"/>
  <anchor x="281" y="536" name="top"/>
  <outline>
    <contour>
      <point x="35" y="172" type="line"/>
      <point x="342" y="336" type="line"/>
      <point x="356" y="398" type="line"/>
      <point x="48" y="234" type="line"/>
    </contour>
    <component base="uni029F"/>
  </outline>
</glyph>
<glyph name="uni1D24" format="2">
  <advance width="442"/>
  <unicode hex="1D24"/>
  <anchor x="187" y="0" name="bottom"/>
  <anchor x="331" y="760" name="top"/>
  <outline>
    <contour>
      <point x="175" y="-10" type="curve" smooth="yes"/>
      <point x="292" y="-10"/>
      <point x="370" y="51"/>
      <point x="370" y="123" type="curve" smooth="yes"/>
      <point x="370" y="168"/>
      <point x="334" y="192"/>
      <point x="263" y="192" type="curve"/>
      <point x="257" y="116"/>
      <point x="235" y="45"/>
      <point x="187" y="45" type="curve" smooth="yes"/>
      <point x="157" y="45"/>
      <point x="135" y="78"/>
      <point x="135" y="134" type="curve" smooth="yes"/>
      <point x="135" y="234"/>
      <point x="195" y="283"/>
      <point x="292" y="320" type="curve"/>
      <point x="311" y="409" type="line"/>
      <point x="424" y="454"/>
      <point x="505" y="518"/>
      <point x="505" y="623" type="curve" smooth="yes"/>
      <point x="505" y="721"/>
      <point x="440" y="770"/>
      <point x="332" y="770" type="curve" smooth="yes"/>
      <point x="215" y="770"/>
      <point x="137" y="709"/>
      <point x="137" y="638" type="curve" smooth="yes"/>
      <point x="137" y="592"/>
      <point x="173" y="569"/>
      <point x="244" y="569" type="curve"/>
      <point x="250" y="644"/>
      <point x="272" y="715"/>
      <point x="320" y="715" type="curve" smooth="yes"/>
      <point x="350" y="715"/>
      <point x="372" y="681"/>
      <point x="372" y="626" type="curve" smooth="yes"/>
      <point x="372" y="526"/>
      <point x="312" y="478"/>
      <point x="215" y="440" type="curve"/>
      <point x="196" y="352" type="line"/>
      <point x="83" y="306"/>
      <point x="2" y="243"/>
      <point x="2" y="137" type="curve" smooth="yes"/>
      <point x="2" y="39"/>
      <point x="66" y="-10"/>
    </contour>
  </outline>
</glyph>
<glyph name="uni1D7A" format="2">
  <advance width="906"/>
  <unicode hex="1D7A"/>
  <anchor x="115" y="0" name="bottom_1"/>
  <anchor x="579" y="0" name="bottom_2"/>
  <anchor x="229" y="268" name="center_1"/>
  <anchor x="693" y="268" name="center_2"/>
  <anchor x="255" y="659" name="top_1"/>
  <anchor x="741" y="760" name="top_2"/>
  <anchor x="382" y="536" name="topright_1"/>
  <anchor x="991" y="760" name="topright_2"/>
  <outline>
    <contour>
      <point x="-30" y="-145" type="line"/>
      <point x="40" y="-145" type="line"/>
      <point x="798" y="760" type="line"/>
      <point x="731" y="760" type="line"/>
    </contour>
    <component base="t"/>
    <component base="h" xOffset="351"/>
  </outline>
</glyph>
<glyph name="uni1D7B" format="2">
  <advance width="308"/>
  <unicode hex="1D7B"/>
  <anchor x="118" y="0" name="bottom"/>
  <anchor x="232" y="536" name="top"/>
  <outline>
    <contour>
      <point x="32" y="260" type="line"/>
      <point x="317" y="260" type="line"/>
      <point x="330" y="314" type="line"/>
      <point x="45" y="314" type="line"/>
    </contour>
    <component base="uni026A"/>
  </outline>
</glyph>
<glyph name="uni1D7D" format="2">
  <advance width="528"/>
  <unicode hex="1D7D"/>
  <anchor x="64" y="-240" name="bottom"/>
  <anchor x="330" y="536" name="top"/>
  <anchor x="562" y="536" name="topright"/>
  <outline>
    <contour>
      <point x="1" y="260" type="line"/>
      <point x="552" y="260" type="line"/>
      <point x="565" y="314" type="line"/>
      <point x="15" y="314" type="line"/>
    </contour>
    <component base="p"/>
  </outline>
</glyph>
<glyph name="uni1D7F" format="2">
  <advance width="507"/>
  <unicode hex="1D7F"/>
  <anchor x="213" y="0" name="bottom"/>
  <anchor x="327" y="536" name="top"/>
  <outline>
    <contour>
      <point x="-9" y="257" type="line"/>
      <point x="532" y="257" type="line"/>
      <point x="545" y="315" type="line"/>
      <point x="4" y="315" type="line"/>
    </contour>
    <component base="uni028A"/>
  </outline>
</glyph>
<glyph name="uni1D82" format="2">
  <advance width="417"/>
  <unicode hex="1D82"/>
  <anchor x="-72" y="-240" name="bottom"/>
  <anchor x="364" y="770" name="top"/>
  <anchor x="515" y="770" name="topright"/>
  <outline>
    <contour>
      <point x="227" y="-197" type="curve" smooth="yes"/>
      <point x="296" y="-197"/>
      <point x="341" y="-158"/>
      <point x="362" y="-45" type="curve" smooth="yes"/>
      <point x="396" y="134" type="line"/>
      <point x="177" y="134" type="line"/>
      <point x="165" y="76" type="line"/>
      <point x="322" y="76" type="line"/>
      <point x="298" y="-39" type="line" smooth="yes"/>
      <point x="287" y="-94"/>
      <point x="266" y="-117"/>
      <point x="230" y="-117" type="curve" smooth="yes"/>
      <point x="209" y="-117"/>
      <point x="195" y="-108"/>
      <point x="182" y="-97" type="curve"/>
      <point x="166" y="-106"/>
      <point x="154" y="-123"/>
      <point x="154" y="-143" type="curve" smooth="yes"/>
      <point x="154" y="-179"/>
      <point x="186" y="-197"/>
    </contour>
    <component base="f"/>
  </outline>
</glyph>
<glyph name="uni1D83" format="2">
  <advance width="658"/>
  <unicode hex="1D83"/>
  <anchor x="153" y="-240" name="bottom"/>
  <anchor x="318" y="536" name="top"/>
  <anchor x="557" y="536" name="topright"/>
  <outline>
    <contour>
      <point x="470" y="-197" type="curve" smooth="yes"/>
      <point x="535" y="-197"/>
      <point x="575" y="-155"/>
      <point x="596" y="-48" type="curve" smooth="yes"/>
      <point x="633" y="130" type="line"/>
      <point x="418" y="130" type="line"/>
      <point x="406" y="74" type="line"/>
      <point x="564" y="74" type="line"/>
      <point x="539" y="-42" type="line" smooth="yes"/>
      <point x="527" y="-97"/>
      <point x="509" y="-118"/>
      <point x="474" y="-118" type="curve" smooth="yes"/>
      <point x="455" y="-118"/>
      <point x="442" y="-111"/>
      <point x="430" y="-99" type="curve"/>
      <point x="414" y="-109"/>
      <point x="405" y="-126"/>
      <point x="405" y="-145" type="curve" smooth="yes"/>
      <point x="405" y="-180"/>
      <point x="432" y="-197"/>
    </contour>
    <component base="uni0261"/>
  </outline>
</glyph>
<glyph name="uni1D93" format="2">
  <advance width="448"/>
  <unicode hex="1D93"/>
  <anchor x="167" y="0" name="bottom"/>
  <anchor x="281" y="536" name="top"/>
  <outline>
    <contour>
      <point x="385" y="-197" type="curve" smooth="yes"/>
      <point x="425" y="-197"/>
      <point x="460" y="-172"/>
      <point x="462" y="-130" type="curve" smooth="yes"/>
      <point x="462" y="-120"/>
      <point x="462" y="-108"/>
      <point x="458" y="-98" type="curve"/>
      <point x="442" y="-109"/>
      <point x="423" y="-115"/>
      <point x="405" y="-115" type="curve" smooth="yes"/>
      <point x="380" y="-115"/>
      <point x="370" y="-102"/>
      <point x="370" y="-73" type="curve" smooth="yes"/>
      <point x="370" y="-59"/>
      <point x="377" y="-11"/>
      <point x="384" y="18" type="curve" smooth="yes"/>
      <point x="403" y="97" type="line"/>
      <point x="330" y="31" type="line"/>
      <point x="317" y="-33" type="line" smooth="yes"/>
      <point x="312" y="-63"/>
      <point x="308" y="-93"/>
      <point x="308" y="-112" type="curve" smooth="yes"/>
      <point x="308" y="-163"/>
      <point x="336" y="-197"/>
    </contour>
    <component base="uni0511"/>
  </outline>
</glyph>
<glyph name="minussuperior" format="2">
  <advance width="327"/>
  <unicode hex="207B"/>
  <outline>
    <contour>
      <point x="22" y="453" type="line"/>
      <point x="305" y="453" type="line"/>
      <point x="305" y="510" type="line"/>
      <point x="22" y="510" type="line"/>
    </contour>
  </outline>
</glyph>
<glyph name="parenrightsuperior" format="2">
  <advance width="202"/>
  <unicode hex="207E"/>
  <outline>
    <contour>
      <point x="-11" y="195" type="line"/>
      <point x="147" y="233"/>
      <point x="240" y="380"/>
      <point x="240" y="568" type="curve" smooth="yes"/>
      <point x="240" y="666"/>
      <point x="199" y="750"/>
      <point x="114" y="787" type="curve"/>
      <point x="105" y="743" type="line"/>
      <point x="141" y="707"/>
      <point x="154" y="639"/>
      <point x="154" y="576" type="curve" smooth="yes"/>
      <point x="154" y="442"/>
      <point x="111" y="312"/>
      <point x="-2" y="237" type="curve"/>
    </contour>
  </outline>
</glyph>
<glyph name="parenleftinferior" format="2">
  <advance width="202"/>
  <unicode hex="208D"/>
  <outline>
    <contour>
      <point x="80" y="-288" type="curve"/>
      <point x="90" y="-244" type="line"/>
      <point x="53" y="-208"/>
      <point x="39" y="-142"/>
      <point x="39" y="-70" type="curve" smooth="yes"/>
      <point x="39" y="61"/>
      <point x="86" y="189"/>
      <point x="197" y="262" type="curve"/>
      <point x="206" y="304" type="line"/>
      <point x="49" y="266"/>
      <point x="-45" y="117"/>
      <point x="-45" y="-60" type="curve" smooth="yes"/>
      <point x="-45" y="-166"/>
      <point x="-3" y="-251"/>
    </contour>
  </outline>
</glyph>
<glyph name="parenrightinferior" format="2">
  <advance width="202"/>
  <unicode hex="208E"/>
  <outline>
    <contour>
      <point x="-96" y="-288" type="line"/>
      <point x="62" y="-250"/>
      <point x="155" y="-103"/>
      <point x="155" y="85" type="curve" smooth="yes"/>
      <point x="155" y="183"/>
      <point x="114" y="267"/>
      <point x="29" y="304" type="curve"/>
      <point x="20" y="260" type="line"/>
      <point x="56" y="224"/>
      <point x="69" y="156"/>
      <point x="69" y="93" type="curve" smooth="yes"/>
      <point x="69" y="-41"/>
      <point x="26" y="-171"/>
      <point x="-87" y="-246" type="curve"/>
    </contour>
  </outline>
</glyph>
<glyph name="uni20A5" format="2">
  <advance width="796"/>
  <unicode hex="20A5"/>
  <anchor x="342" y="0" name="bottom"/>
  <anchor x="456" y="536" name="top"/>
  <anchor x="833" y="536" name="topright"/>
  <outline>
    <contour>
      <point x="122" y="-118" type="line"/>
      <point x="184" y="-118" type="line"/>
      <point x="656" y="666" type="line"/>
      <point x="595" y="666" type="line"/>
    </contour>
    <component base="m"/>
  </outline>
</glyph>
<glyph name="uni20A9" format="2">
  <advance width="881"/>
  <unicode hex="20A9"/>
  <anchor x="377" y="0" name="bottom"/>
  <anchor x="529" y="714" name="top"/>
  <anchor x="942.01" y="714.0" name="topright"/>
  <outline>
    <contour>
      <point x="56" y="359" type="line"/>
      <point x="894" y="360" type="line"/>
      <point x="906" y="415" type="line"/>
      <point x="68" y="415" type="line"/>
    </contour>
    <component base="W"/>
  </outline>
</glyph>
<glyph name="planckconstantovertwopi" format="2">
  <advance width="555"/>
  <unicode hex="210F"/>
  <anchor x="228" y="0" name="bottom"/>
  <anchor x="342" y="268" name="center"/>
  <anchor x="390" y="760" name="top"/>
  <anchor x="640" y="760" name="topright"/>
  <outline>
    <contour>
      <point x="60" y="473" type="line"/>
      <point x="397" y="627" type="line"/>
      <point x="410" y="695" type="line"/>
      <point x="74" y="539" type="line"/>
    </contour>
    <component base="h"/>
  </outline>
</glyph>
<glyph name="response" format="2">
  <advance width="579"/>
  <unicode hex="211F"/>
  <anchor x="233" y="0" name="bottom"/>
  <anchor x="385" y="714" name="top"/>
  <anchor x="654" y="714" name="topright"/>
  <outline>
    <contour>
      <point x="105" y="-124" type="line"/>
      <point x="159" y="-131" type="line"/>
      <point x="497" y="784" type="line"/>
      <point x="284" y="855" type="line"/>
      <point x="267" y="807" type="line"/>
      <point x="427" y="755" type="line"/>
    </contour>
    <component base="R"/>
  </outline>
</glyph>
<glyph name="turnedSansSerifL" format="2">
  <advance width="517"/>
  <unicode hex="2142"/>
  <outline>
    <contour>
      <point x="166" y="0" type="line"/>
      <point x="454" y="0" type="line"/>
      <point x="466" y="50" type="line"/>
      <point x="455" y="50" type="line" smooth="yes"/>
      <point x="396" y="50"/>
      <point x="392" y="66"/>
      <point x="404" y="120" type="curve" smooth="yes"/>
      <point x="506" y="601" type="line" smooth="yes"/>
      <point x="517" y="656"/>
      <point x="549" y="664"/>
      <point x="583" y="664" type="curve" smooth="yes"/>
      <point x="594" y="664" type="line"/>
      <point x="604" y="714" type="line"/>
      <point x="122" y="714" type="line"/>
      <point x="68" y="493" type="line"/>
      <point x="121" y="493" type="line"/>
      <point x="139" y="552" type="line" smooth="yes"/>
      <point x="161" y="622"/>
      <point x="189" y="656"/>
      <point x="249" y="656" type="curve" smooth="yes"/>
      <point x="380" y="656" type="line"/>
      <point x="267" y="112" type="line" smooth="yes"/>
      <point x="256" y="58"/>
      <point x="224" y="50"/>
      <point x="188" y="50" type="curve" smooth="yes"/>
      <point x="177" y="50" type="line"/>
    </contour>
  </outline>
</glyph>
<glyph name="reversedSansSerifL" format="2">
  <advance width="483"/>
  <unicode hex="2143"/>
  <outline>
    <contour>
      <point x="-23" y="0" type="line"/>
      <point x="421" y="0" type="line"/>
      <point x="431" y="50" type="line"/>
      <point x="420" y="50" type="line" smooth="yes"/>
      <point x="360" y="50"/>
      <point x="359" y="65"/>
      <point x="369" y="121" type="curve" smooth="yes"/>
      <point x="471" y="601" type="line" smooth="yes"/>
      <point x="482" y="656"/>
      <point x="514" y="664"/>
      <point x="547" y="664" type="curve" smooth="yes"/>
      <point x="559" y="664" type="line"/>
      <point x="570" y="714" type="line"/>
      <point x="267" y="714" type="line"/>
      <point x="255" y="664" type="line"/>
      <point x="282" y="664" type="line" smooth="yes"/>
      <point x="340" y="664"/>
      <point x="345" y="648"/>
      <point x="330" y="580" type="curve" smooth="yes"/>
      <point x="222" y="58" type="line"/>
      <point x="127" y="58" type="line" smooth="yes"/>
      <point x="87" y="58"/>
      <point x="71" y="85"/>
      <point x="70" y="137" type="curve" smooth="yes"/>
      <point x="69" y="190" type="line"/>
      <point x="12" y="190" type="line"/>
    </contour>
  </outline>
</glyph>
<glyph name="uni2C65" format="2">
  <advance width="552"/>
  <unicode hex="2C65"/>
  <anchor x="176" y="-206" name="bottom"/>
  <anchor x="372" y="714" name="top"/>
  <anchor x="589" y="536" name="topright"/>
  <outline>
    <contour>
      <point x="70" y="-206" type="line"/>
      <point x="127" y="-206" type="line"/>
      <point x="432" y="714" type="line"/>
      <point x="374" y="714" type="line"/>
    </contour>
    <component base="a"/>
  </outline>
</glyph>
<glyph name="uni2C66" format="2">
  <advance width="346"/>
  <unicode hex="2C66"/>
  <anchor x="71" y="-206" name="bottom"/>
  <anchor x="267" y="714" name="top"/>
  <anchor x="229" y="268" name="center"/>
  <anchor x="382" y="536" name="topright"/>
  <outline>
    <contour>
      <point x="68" y="-206" type="line"/>
      <point x="126" y="-206" type="line"/>
      <point x="440" y="714" type="line"/>
      <point x="382" y="714" type="line"/>
    </contour>
    <component base="t"/>
  </outline>
</glyph>
<glyph name="uni2DF5" format="2">
  <unicode hex="2DF5"/>
  <anchor x="57" y="536" name="_top"/>
  <anchor x="74" y="619" name="bottom"/>
  <anchor x="119" y="835" name="top"/>
  <outline>
    <contour>
      <point x="284.99" y="834" type="line"/>
      <point x="90" y="834" type="line" smooth="yes"/>
      <point x="-17" y="834"/>
      <point x="-76" y="761"/>
      <point x="-76" y="695" type="curve" smooth="yes"/>
      <point x="-76" y="643"/>
      <point x="-40" y="616"/>
      <point x="5" y="616" type="curve" smooth="yes"/>
      <point x="56" y="616"/>
      <point x="79" y="642"/>
      <point x="79" y="662" type="curve" smooth="yes"/>
      <point x="79" y="669"/>
      <point x="77" y="674"/>
      <point x="74" y="676" type="curve"/>
      <point x="63" y="661"/>
      <point x="48" y="645"/>
      <point x="22" y="645" type="curve" smooth="yes"/>
      <point x="-3" y="645"/>
      <point x="-16" y="665"/>
      <point x="-16" y="699" type="curve" smooth="yes"/>
      <point x="-16" y="751"/>
      <point x="17" y="811"/>
      <point x="89" y="811" type="curve" smooth="yes"/>
      <point x="155" y="811" type="line"/>
      <point x="124" y="666" type="line" smooth="yes"/>
      <point x="120" y="645"/>
      <point x="108" y="639"/>
      <point x="93" y="639" type="curve" smooth="yes"/>
      <point x="88" y="639" type="line"/>
      <point x="84" y="620" type="line"/>
      <point x="204" y="620" type="line"/>
      <point x="209" y="639" type="line"/>
      <point x="203" y="639" type="line" smooth="yes"/>
      <point x="187" y="639"/>
      <point x="178" y="645"/>
      <point x="183" y="666" type="curve" smooth="yes"/>
      <point x="214" y="811" type="line"/>
      <point x="228" y="811" type="line" smooth="yes"/>
      <point x="247" y="811"/>
      <point x="251" y="804"/>
      <point x="248" y="778" type="curve"/>
      <point x="247" y="763" type="line"/>
      <point x="274" y="763" type="line"/>
    </contour>
  </outline>
</glyph>
<glyph name="uniA642" format="2">
  <advance width="552"/>
  <unicode hex="A642"/>
  <outline>
    <contour>
      <point x="123" y="345" type="line"/>
      <point x="504" y="345" type="line"/>
      <point x="516" y="403" type="line"/>
      <point x="136" y="403" type="line"/>
    </contour>
    <component base="uniA640"/>
  </outline>
</glyph>
<glyph name="uniA643" format="2">
  <advance width="462"/>
  <unicode hex="A643"/>
  <outline>
    <contour>
      <point x="62" y="247" type="line"/>
      <point x="400" y="247" type="line"/>
      <point x="412" y="301" type="line"/>
      <point x="74" y="301" type="line"/>
    </contour>
    <component base="uniA641"/>
  </outline>
</glyph>
<glyph name="uniA740" format="2">
  <advance width="606"/>
  <unicode hex="A740"/>
  <anchor x="247" y="0" name="bottom"/>
  <anchor x="399" y="714" name="top"/>
  <anchor x="681" y="714" name="topright"/>
  <outline>
    <contour>
      <point x="98" y="539" type="line"/>
      <point x="386" y="539" type="line"/>
      <point x="399" y="594" type="line"/>
      <point x="111" y="594" type="line"/>
    </contour>
    <component base="K"/>
  </outline>
</glyph>
<glyph name="uniA742" format="2">
  <advance width="606"/>
  <unicode hex="A742"/>
  <anchor x="247" y="0" name="bottom"/>
  <anchor x="399" y="714" name="top"/>
  <anchor x="681" y="714" name="topright"/>
  <outline>
    <contour>
      <point x="281" y="109" type="line"/>
      <point x="538" y="295" type="line"/>
      <point x="516" y="342" type="line"/>
      <point x="260" y="157" type="line"/>
    </contour>
    <component base="K"/>
  </outline>
</glyph>
<glyph name="uniA743" format="2">
  <advance width="502"/>
  <unicode hex="A743"/>
  <anchor x="187" y="0" name="bottom"/>
  <anchor x="349" y="760" name="top"/>
  <anchor x="587" y="760" name="topright"/>
  <outline>
    <contour>
      <point x="234" y="86" type="line"/>
      <point x="445" y="242" type="line"/>
      <point x="423" y="289" type="line"/>
      <point x="216" y="130" type="line"/>
    </contour>
    <component base="k"/>
  </outline>
</glyph>
<glyph name="uniA744" format="2">
  <advance width="606"/>
  <unicode hex="A744"/>
  <anchor x="247" y="0" name="bottom"/>
  <anchor x="399" y="714" name="top"/>
  <anchor x="681" y="714" name="topright"/>
  <outline>
    <contour>
      <point x="286" y="115" type="line"/>
      <point x="543" y="301" type="line"/>
      <point x="513" y="342" type="line"/>
      <point x="256" y="157" type="line"/>
    </contour>
    <contour>
      <point x="98" y="539" type="line"/>
      <point x="386" y="539" type="line"/>
      <point x="399" y="594" type="line"/>
      <point x="111" y="594" type="line"/>
    </contour>
    <component base="K"/>
  </outline>
</glyph>
<glyph name="uniA745" format="2">
  <advance width="502"/>
  <unicode hex="A745"/>
  <anchor x="201" y="0" name="bottom"/>
  <anchor x="363" y="760" name="top"/>
  <anchor x="587" y="760" name="topright"/>
  <outline>
    <contour>
      <point x="234" y="87" type="line"/>
      <point x="452" y="243" type="line"/>
      <point x="425" y="283" type="line"/>
      <point x="208" y="127" type="line"/>
    </contour>
    <contour>
      <point x="89" y="591" type="line"/>
      <point x="364" y="591" type="line"/>
      <point x="376" y="641" type="line"/>
      <point x="100" y="641" type="line"/>
    </contour>
    <component base="k"/>
  </outline>
</glyph>
<glyph name="uniA748" format="2">
  <advance width="533"/>
  <unicode hex="A748"/>
  <anchor x="210" y="0" name="bottom"/>
  <anchor x="305" y="357" name="center"/>
  <anchor x="362" y="714" name="top"/>
  <anchor x="609" y="714" name="topright"/>
  <outline>
    <contour>
      <point x="96" y="539" type="line"/>
      <point x="385" y="539" type="line"/>
      <point x="398" y="594" type="line"/>
      <point x="110" y="594" type="line"/>
    </contour>
    <component base="L"/>
  </outline>
</glyph>
<glyph name="uniA749" format="2">
  <advance width="295"/>
  <unicode hex="A749"/>
  <anchor x="90" y="0" name="bottom"/>
  <anchor x="204" y="268" name="center"/>
  <anchor x="252" y="760" name="top"/>
  <anchor x="380" y="760" name="topright"/>
  <outline>
    <contour>
      <point x="78" y="591" type="line"/>
      <point x="354" y="591" type="line"/>
      <point x="367" y="641" type="line"/>
      <point x="91" y="641" type="line"/>
    </contour>
    <component base="l"/>
  </outline>
</glyph>
<glyph name="uniA74A" format="2">
  <advance width="649"/>
  <unicode hex="A74A"/>
  <anchor x="268" y="0" name="bottom"/>
  <anchor x="363" y="357" name="center"/>
  <anchor x="420" y="714" name="top"/>
  <anchor x="724" y="714" name="topright"/>
  <outline>
    <contour>
      <point x="22" y="342" type="line"/>
      <point x="683" y="342" type="line"/>
      <point x="697" y="403" type="line"/>
      <point x="34" y="403" type="line"/>
    </contour>
    <component base="O"/>
  </outline>
</glyph>
<glyph name="uniA74B" format="2">
  <advance width="507"/>
  <unicode hex="A74B"/>
  <anchor x="197" y="0" name="bottom"/>
  <anchor x="311" y="268" name="center"/>
  <anchor x="311" y="536" name="top"/>
  <anchor x="544" y="536" name="topright"/>
  <outline>
    <contour>
      <point x="-16" y="244" type="line"/>
      <point x="541" y="244" type="line"/>
      <point x="552" y="297" type="line"/>
      <point x="-6" y="297" type="line"/>
    </contour>
    <component base="o"/>
  </outline>
</glyph>
<glyph name="uniA750" format="2">
  <advance width="546"/>
  <unicode hex="A750"/>
  <anchor x="130" y="0" name="bottom"/>
  <anchor x="367" y="714" name="top"/>
  <anchor x="619" y="714" name="topright"/>
  <outline>
    <contour>
      <point x="10" y="140" type="line"/>
      <point x="314" y="140" type="line"/>
      <point x="328" y="195" type="line"/>
      <point x="24" y="195" type="line"/>
    </contour>
    <component base="P"/>
  </outline>
</glyph>
<glyph name="uniA751" format="2">
  <advance width="528"/>
  <unicode hex="A751"/>
  <anchor x="48" y="-240" name="bottom"/>
  <anchor x="313" y="536" name="top"/>
  <anchor x="562" y="536" name="topright"/>
  <outline>
    <contour>
      <point x="-76" y="-117" type="line"/>
      <point x="220" y="-117" type="line"/>
      <point x="233" y="-62" type="line"/>
      <point x="-63" y="-62" type="line"/>
    </contour>
    <component base="p"/>
  </outline>
</glyph>
<glyph name="uniA756" format="2">
  <advance width="644"/>
  <unicode hex="A756"/>
  <anchor x="216" y="-230" name="bottom"/>
  <anchor x="417" y="714" name="top"/>
  <anchor x="719" y="714" name="topright"/>
  <outline>
    <contour>
      <point x="176" y="-210" type="line"/>
      <point x="471" y="-84" type="line"/>
      <point x="461" y="-36" type="line"/>
      <point x="165" y="-162" type="line"/>
    </contour>
    <component base="Q"/>
  </outline>
</glyph>
<glyph name="uniA75F" format="2">
  <advance width="482"/>
  <unicode hex="A75F"/>
  <anchor x="184" y="0" name="bottom"/>
  <anchor x="298" y="536" name="top"/>
  <anchor x="519" y="536" name="topright"/>
  <outline>
    <contour>
      <point x="-9" y="-50" type="line"/>
      <point x="41" y="-50" type="line"/>
      <point x="365" y="596" type="line"/>
      <point x="316" y="596" type="line"/>
    </contour>
    <component base="v"/>
  </outline>
</glyph>
<glyph name="uniA764" format="2">
  <advance width="522"/>
  <unicode hex="A764"/>
  <outline>
    <contour>
      <point x="-19" y="0" type="line"/>
      <point x="266" y="0" type="line"/>
      <point x="278" y="50" type="line"/>
      <point x="269" y="50" type="line" smooth="yes"/>
      <point x="235" y="50"/>
      <point x="211" y="55"/>
      <point x="211" y="84" type="curve" smooth="yes"/>
      <point x="211" y="90"/>
      <point x="214" y="102"/>
      <point x="216" y="111" type="curve" smooth="yes"/>
      <point x="228" y="161" type="line"/>
      <point x="289" y="161" type="line" smooth="yes"/>
      <point x="460" y="161"/>
      <point x="540" y="262"/>
      <point x="540" y="371" type="curve" smooth="yes"/>
      <point x="540" y="471"/>
      <point x="487" y="522"/>
      <point x="321" y="522" type="curve" smooth="yes"/>
      <point x="298" y="522" type="line"/>
      <point x="308" y="567" type="line"/>
      <point x="386" y="567" type="line"/>
      <point x="399" y="622" type="line"/>
      <point x="324" y="622" type="line"/>
      <point x="338" y="662"/>
      <point x="365" y="664"/>
      <point x="397" y="664" type="curve" smooth="yes"/>
      <point x="407" y="664" type="line"/>
      <point x="417" y="714" type="line"/>
      <point x="131" y="714" type="line"/>
      <point x="119" y="664" type="line"/>
      <point x="130" y="664" type="line" smooth="yes"/>
      <point x="149" y="664"/>
      <point x="188" y="662"/>
      <point x="186" y="622" type="curve"/>
      <point x="113" y="622" type="line"/>
      <point x="100" y="567" type="line"/>
      <point x="174" y="567" type="line"/>
      <point x="80" y="113" type="line"/>
      <point x="68" y="58"/>
      <point x="36" y="50"/>
      <point x="3" y="50" type="curve" smooth="yes"/>
      <point x="-8" y="50" type="line"/>
    </contour>
    <contour>
      <point x="241" y="216" type="line"/>
      <point x="287" y="466" type="line"/>
      <point x="302" y="466" type="line" smooth="yes"/>
      <point x="349" y="466"/>
      <point x="399" y="452"/>
      <point x="399" y="364" type="curve" smooth="yes"/>
      <point x="399" y="266"/>
      <point x="367" y="216"/>
      <point x="271" y="216" type="curve" smooth="yes"/>
    </contour>
  </outline>
</glyph>
<glyph name="uniA765" format="2">
  <advance width="514"/>
  <unicode hex="A765"/>
  <anchor x="149" y="-240" name="bottom"/>
  <anchor x="362" y="760" name="top"/>
  <outline>
    <contour>
      <point x="77" y="583" type="line"/>
      <point x="355" y="583" type="line"/>
      <point x="368" y="638" type="line"/>
      <point x="90" y="638" type="line"/>
    </contour>
    <component base="thorn"/>
  </outline>
</glyph>
<glyph name="uniA767" format="2">
  <advance width="514"/>
  <unicode hex="A767"/>
  <anchor x="149" y="-240" name="bottom"/>
  <anchor x="362" y="760" name="top"/>
  <outline>
    <contour>
      <point x="-65" y="-123" type="line"/>
      <point x="212" y="-123" type="line"/>
      <point x="225" y="-70" type="line"/>
      <point x="-52" y="-70" type="line"/>
    </contour>
    <component base="thorn"/>
  </outline>
</glyph>
<glyph name="uniA78C" format="2">
  <advance width="249"/>
  <unicode hex="A78C"/>
  <outline>
    <contour>
      <point x="116" y="401" type="line"/>
      <point x="169" y="401" type="line"/>
      <point x="295" y="715" type="line"/>
      <point x="160" y="715" type="line"/>
    </contour>
  </outline>
</glyph>
<glyph name="uniA792" format="2">
  <advance width="543"/>
  <unicode hex="A792"/>
  <anchor x="274" y="0" name="bottom"/>
  <anchor x="422" y="714" name="top"/>
  <anchor x="618" y="714" name="topright"/>
  <outline>
    <contour>
      <point x="-5" y="344" type="line"/>
      <point x="343" y="344" type="line"/>
      <point x="357" y="402" type="line"/>
      <point x="8" y="402" type="line"/>
    </contour>
    <component base="C" xOffset="-4"/>
  </outline>
</glyph>
<glyph name="uniA799" format="2">
  <advance width="341"/>
  <unicode hex="A799"/>
  <anchor x="-72" y="-240" name="bottom"/>
  <anchor x="364" y="770" name="top"/>
  <anchor x="515" y="770" name="topright"/>
  <outline>
    <contour>
      <point x="20" y="244" type="line"/>
      <point x="323" y="244" type="line"/>
      <point x="335" y="308" type="line"/>
      <point x="33" y="308" type="line"/>
    </contour>
    <component base="f"/>
  </outline>
</glyph>
<glyph name="uniA7A1" format="2">
  <advance width="474"/>
  <unicode hex="A7A1"/>
  <anchor x="129" y="-240" name="bottom"/>
  <anchor x="294" y="536" name="top"/>
  <anchor x="511" y="536" name="topright"/>
  <outline>
    <contour>
      <point x="22" y="284" type="line"/>
      <point x="488" y="381" type="line"/>
      <point x="499" y="432" type="line"/>
      <point x="33" y="334" type="line"/>
    </contour>
    <component base="g"/>
  </outline>
</glyph>
<glyph name="uniA7A4" format="2">
  <advance width="641"/>
  <unicode hex="A7A4"/>
  <anchor x="264" y="0" name="bottom"/>
  <anchor x="416" y="714" name="top"/>
  <anchor x="716" y="714" name="topright"/>
  <outline>
    <contour>
      <point x="14" y="258" type="line"/>
      <point x="686" y="423" type="line"/>
      <point x="697" y="478" type="line"/>
      <point x="26" y="314" type="line"/>
    </contour>
    <component base="N"/>
  </outline>
</glyph>
<glyph name="uniA7A6" format="2">
  <advance width="579"/>
  <unicode hex="A7A6"/>
  <anchor x="233" y="0" name="bottom"/>
  <anchor x="385" y="714" name="top"/>
  <anchor x="654" y="714" name="topright"/>
  <outline>
    <contour>
      <point x="57" y="407" type="line"/>
      <point x="653" y="545" type="line"/>
      <point x="665" y="601" type="line"/>
      <point x="69" y="463" type="line"/>
    </contour>
    <component base="R"/>
  </outline>
</glyph>
<glyph name="uniA7A7" format="2">
  <advance width="459"/>
  <unicode hex="A7A7"/>
  <anchor x="97" y="0" name="bottom"/>
  <anchor x="307" y="536" name="top"/>
  <anchor x="496" y="536" name="topright"/>
  <outline>
    <contour>
      <point x="1" y="173" type="line"/>
      <point x="330" y="242" type="line"/>
      <point x="341" y="295" type="line"/>
      <point x="13" y="226" type="line"/>
    </contour>
    <component base="r"/>
  </outline>
</glyph>
<glyph name="uniA7A8" format="2">
  <advance width="482"/>
  <unicode hex="A7A8"/>
  <anchor x="184" y="0" name="bottom"/>
  <anchor x="336" y="714" name="top"/>
  <anchor x="556" y="714" name="topright"/>
  <outline>
    <contour>
      <point x="36" y="297" type="line"/>
      <point x="486" y="404" type="line"/>
      <point x="497" y="460" type="line"/>
      <point x="48" y="352" type="line"/>
    </contour>
    <component base="S"/>
  </outline>
</glyph>
<glyph name="uniA7AE" format="2">
  <advance width="459"/>
  <unicode hex="A7AE"/>
  <outline>
    <contour>
      <point x="-10" y="0" type="line"/>
      <point x="393" y="0" type="line"/>
      <point x="435" y="168" type="line"/>
      <point x="376" y="168" type="line"/>
      <point x="365" y="135" type="line" smooth="yes"/>
      <point x="346" y="72"/>
      <point x="331" y="54"/>
      <point x="304" y="54" type="curve" smooth="yes"/>
      <point x="271" y="54" type="line"/>
      <point x="359" y="482" type="line"/>
      <point x="392" y="482" type="line" smooth="yes"/>
      <point x="413" y="482"/>
      <point x="423" y="471"/>
      <point x="423" y="436" type="curve" smooth="yes"/>
      <point x="423" y="424"/>
      <point x="421" y="399"/>
      <point x="416" y="368" type="curve"/>
      <point x="475" y="368" type="line"/>
      <point x="506" y="536" type="line"/>
      <point x="103" y="536" type="line"/>
      <point x="61" y="368" type="line"/>
      <point x="120" y="368" type="line"/>
      <point x="131" y="401" type="line" smooth="yes"/>
      <point x="150" y="464"/>
      <point x="164" y="482"/>
      <point x="192" y="482" type="curve" smooth="yes"/>
      <point x="226" y="482" type="line"/>
      <point x="138" y="54" type="line"/>
      <point x="103" y="54" type="line" smooth="yes"/>
      <point x="81" y="54"/>
      <point x="73" y="67"/>
      <point x="73" y="104" type="curve" smooth="yes"/>
      <point x="73" y="115"/>
      <point x="76" y="136"/>
      <point x="80" y="168" type="curve"/>
      <point x="22" y="168" type="line"/>
    </contour>
  </outline>
</glyph>
<glyph name="uniA7AF" format="2">
  <advance width="564"/>
  <unicode hex="A7AF"/>
  <anchor x="221" y="0" name="bottom"/>
  <anchor x="282" y="286" name="center"/>
  <anchor x="343" y="571" name="top"/>
  <anchor x="605" y="571" name="topright"/>
  <outline>
    <contour>
      <point x="304" y="1" type="curve"/>
      <point x="171" y="7" type="line"/>
      <point x="158" y="-145"/>
      <point x="238" y="-230"/>
      <point x="329" y="-230" type="curve" smooth="yes"/>
      <point x="359" y="-230"/>
      <point x="380" y="-225"/>
      <point x="411" y="-213" type="curve"/>
      <point x="405" y="-169" type="line"/>
      <point x="396" y="-173"/>
      <point x="388" y="-175"/>
      <point x="378" y="-175" type="curve" smooth="yes"/>
      <point x="333" y="-175"/>
      <point x="291" y="-132"/>
    </contour>
    <component base="o.sc"/>
  </outline>
</glyph>
<glyph name="uniA7B9" format="2">
  <advance width="548"/>
  <unicode hex="A7B9"/>
  <anchor x="222" y="0" name="bottom"/>
  <anchor x="336" y="536" name="top"/>
  <anchor x="594" y="536" name="topright"/>
  <outline>
    <contour>
      <point x="-11" y="-11" type="line"/>
      <point x="46" y="-11" type="line"/>
      <point x="596" y="581" type="line"/>
      <point x="539" y="581" type="line"/>
    </contour>
    <component base="u"/>
  </outline>
</glyph>
<glyph name="uniA7C7" format="2">
  <advance width="629"/>
  <unicode hex="A7C7"/>
  <anchor x="258" y="0" name="bottom"/>
  <anchor x="353" y="357" name="center"/>
  <anchor x="410" y="714" name="top"/>
  <anchor x="704" y="714" name="topright"/>
  <outline>
    <contour>
      <point x="163" y="342" type="line"/>
      <point x="590" y="342" type="line"/>
      <point x="590" y="391" type="line"/>
      <point x="163" y="391" type="line"/>
    </contour>
    <component base="D"/>
  </outline>
</glyph>
<glyph name="uniA7C9" format="2">
  <advance width="481"/>
  <unicode hex="A7C9"/>
  <anchor x="184" y="0" name="bottom"/>
  <anchor x="336" y="714" name="top"/>
  <anchor x="556" y="714" name="topright"/>
  <outline>
    <contour>
      <point x="62" y="344" type="line"/>
      <point x="482" y="344" type="line"/>
      <point x="492" y="393" type="line"/>
      <point x="72" y="393" type="line"/>
    </contour>
    <component base="S"/>
  </outline>
</glyph>
<glyph name="uniA7FF" format="2">
  <advance width="848"/>
  <unicode hex="A7FF"/>
  <outline>
    <contour>
      <point x="74" y="-10" type="curve" smooth="yes"/>
      <point x="106" y="-10"/>
      <point x="133" y="12"/>
      <point x="139" y="64" type="curve"/>
      <point x="121" y="69"/>
      <point x="103" y="89"/>
      <point x="103" y="126" type="curve" smooth="yes"/>
      <point x="103" y="203"/>
      <point x="142" y="307"/>
      <point x="242" y="433" type="curve"/>
      <point x="249" y="433" type="line"/>
      <point x="236" y="-6" type="line"/>
      <point x="346" y="4" type="line"/>
      <point x="425" y="121"/>
      <point x="481" y="315"/>
      <point x="522" y="402" type="curve"/>
      <point x="523" y="321"/>
      <point x="517" y="113"/>
      <point x="512" y="-10" type="curve"/>
      <point x="614" y="1" type="line"/>
      <point x="730" y="162"/>
      <point x="848" y="338"/>
      <point x="848" y="470" type="curve" smooth="yes"/>
      <point x="848" y="519"/>
      <point x="827" y="546"/>
      <point x="791" y="546" type="curve" smooth="yes"/>
      <point x="761" y="546"/>
      <point x="731" y="524"/>
      <point x="725" y="479" type="curve"/>
      <point x="745" y="472"/>
      <point x="765" y="452"/>
      <point x="765" y="416" type="curve" smooth="yes"/>
      <point x="765" y="342"/>
      <point x="726" y="222"/>
      <point x="638" y="100" type="curve"/>
      <point x="632" y="100" type="line"/>
      <point x="635" y="167"/>
      <point x="635" y="467"/>
      <point x="630" y="531" type="curve"/>
      <point x="526" y="527" type="line"/>
      <point x="476" y="380"/>
      <point x="418" y="222"/>
      <point x="364" y="113" type="curve"/>
      <point x="359" y="113" type="line"/>
      <point x="369" y="537" type="line"/>
      <point x="263" y="527" type="line"/>
      <point x="138" y="396"/>
      <point x="21" y="212"/>
      <point x="21" y="67" type="curve" smooth="yes"/>
      <point x="21" y="18"/>
      <point x="41" y="-10"/>
    </contour>
  </outline>
</glyph>
<glyph name="uniAB37" format="2">
  <advance width="346"/>
  <unicode hex="AB37"/>
  <anchor x="107" y="0" name="bottom"/>
  <anchor x="221" y="268" name="center"/>
  <anchor x="269" y="760" name="top"/>
  <anchor x="397" y="760" name="topright"/>
  <outline>
    <contour>
      <point x="78" y="318" type="curve"/>
      <point x="92" y="374" type="line"/>
      <point x="73" y="374"/>
      <point x="64" y="392"/>
      <point x="64" y="408" type="curve" smooth="yes"/>
      <point x="64" y="437"/>
      <point x="79" y="452"/>
      <point x="101" y="452" type="curve" smooth="yes"/>
      <point x="185" y="452"/>
      <point x="174" y="322"/>
      <point x="286" y="322" type="curve" smooth="yes"/>
      <point x="330" y="322"/>
      <point x="388" y="356"/>
      <point x="388" y="437" type="curve" smooth="yes"/>
      <point x="388" y="487"/>
      <point x="353" y="519"/>
      <point x="316" y="519" type="curve"/>
      <point x="303" y="463" type="line"/>
      <point x="320" y="463"/>
      <point x="329" y="444"/>
      <point x="329" y="428" type="curve" smooth="yes"/>
      <point x="329" y="399"/>
      <point x="315" y="385"/>
      <point x="293" y="385" type="curve" smooth="yes"/>
      <point x="195" y="385"/>
      <point x="213" y="515"/>
      <point x="108" y="515" type="curve" smooth="yes"/>
      <point x="63" y="515"/>
      <point x="5" y="481"/>
      <point x="5" y="400" type="curve" smooth="yes"/>
      <point x="5" y="348"/>
      <point x="40" y="318"/>
    </contour>
    <component base="l" xOffset="17"/>
  </outline>
</glyph>
<glyph name="uniAB41" format="2">
  <advance width="754"/>
  <unicode hex="AB41"/>
  <anchor x="466" y="536" name="bottom"/>
  <anchor x="352" y="0" name="top"/>
  <outline>
    <contour>
      <point x="287" y="-48" type="line"/>
      <point x="352" y="-48" type="line"/>
      <point x="743" y="576" type="line"/>
      <point x="680" y="576" type="line"/>
    </contour>
    <component base="oe" xScale="-1" yScale="-1" xOffset="777" yOffset="536"/>
  </outline>
</glyph>
<glyph name="uniAB42" format="2">
  <advance width="750"/>
  <unicode hex="AB42"/>
  <anchor x="466" y="536" name="bottom"/>
  <anchor x="352" y="0" name="top"/>
  <outline>
    <contour>
      <point x="371" y="254" type="line"/>
      <point x="634" y="254" type="line"/>
      <point x="635" y="311" type="line"/>
      <point x="372" y="311" type="line"/>
    </contour>
    <component base="oe" xScale="-1" yScale="-1" xOffset="777" yOffset="536"/>
  </outline>
</glyph>
<glyph name="uniAB4F" format="2">
  <advance width="556"/>
  <unicode hex="AB4F"/>
  <outline>
    <contour>
      <point x="18" y="257" type="line"/>
      <point x="545" y="257" type="line"/>
      <point x="557" y="309" type="line"/>
      <point x="29" y="309" type="line"/>
    </contour>
    <component base="uniAB4E"/>
  </outline>
</glyph>
<glyph name="uniAB60" format="2">
  <advance width="737"/>
  <unicode hex="AB60"/>
  <outline>
    <contour>
      <point x="493" y="-10" type="curve" smooth="yes"/>
      <point x="619" y="-10"/>
      <point x="712" y="54"/>
      <point x="712" y="176" type="curve" smooth="yes"/>
      <point x="712" y="265"/>
      <point x="664" y="313"/>
      <point x="556" y="313" type="curve" smooth="yes"/>
      <point x="538" y="313"/>
      <point x="510" y="310"/>
      <point x="477" y="306" type="curve"/>
      <point x="525" y="536" type="line"/>
      <point x="328" y="536" type="line"/>
      <point x="318" y="486" type="line"/>
      <point x="334" y="486" type="line" smooth="yes"/>
      <point x="359" y="486"/>
      <point x="374" y="479"/>
      <point x="374" y="454" type="curve" smooth="yes"/>
      <point x="374" y="444"/>
      <point x="368" y="418"/>
      <point x="362" y="392" type="curve" smooth="yes"/>
      <point x="329" y="238" type="line" smooth="yes"/>
      <point x="321" y="204"/>
      <point x="316" y="168"/>
      <point x="316" y="135" type="curve" smooth="yes"/>
      <point x="316" y="27"/>
      <point x="383" y="-10"/>
    </contour>
    <contour>
      <point x="155" y="-10" type="curve" smooth="yes"/>
      <point x="221" y="-10"/>
      <point x="260" y="26"/>
      <point x="288" y="57" type="curve"/>
      <point x="265" y="89" type="line"/>
      <point x="246" y="74"/>
      <point x="236" y="65"/>
      <point x="218" y="65" type="curve" smooth="yes"/>
      <point x="201" y="65"/>
      <point x="192" y="80"/>
      <point x="192" y="107" type="curve" smooth="yes"/>
      <point x="192" y="137"/>
      <point x="199" y="176"/>
      <point x="208" y="216" type="curve" smooth="yes"/>
      <point x="277" y="536" type="line"/>
      <point x="76" y="536" type="line"/>
      <point x="65" y="486" type="line"/>
      <point x="81" y="486" type="line" smooth="yes"/>
      <point x="108" y="486"/>
      <point x="121" y="477"/>
      <point x="121" y="454" type="curve" smooth="yes"/>
      <point x="121" y="446"/>
      <point x="119" y="438"/>
      <point x="117" y="427" type="curve" smooth="yes"/>
      <point x="73" y="207" type="line" smooth="yes"/>
      <point x="63" y="163"/>
      <point x="56" y="115"/>
      <point x="56" y="86" type="curve" smooth="yes"/>
      <point x="56" y="28"/>
      <point x="91" y="-10"/>
    </contour>
    <contour>
      <point x="501" y="53" type="curve" smooth="yes"/>
      <point x="462" y="53"/>
      <point x="446" y="78"/>
      <point x="446" y="124" type="curve" smooth="yes"/>
      <point x="446" y="154"/>
      <point x="456" y="216"/>
      <point x="463" y="248" type="curve"/>
      <point x="475" y="249"/>
      <point x="491" y="253"/>
      <point x="518" y="253" type="curve" smooth="yes"/>
      <point x="556" y="253"/>
      <point x="576" y="226"/>
      <point x="576" y="172" type="curve" smooth="yes"/>
      <point x="576" y="100"/>
      <point x="552" y="53"/>
    </contour>
  </outline>
</glyph>
<glyph name="uniFE20" format="2">
  <unicode hex="FE20"/>
  <anchor x="67" y="536" name="_top"/>
  <outline>
    <contour>
      <point x="-208" y="594" type="curve"/>
      <point x="-150" y="594" type="line"/>
      <point x="-85" y="679"/>
      <point x="-17" y="713"/>
      <point x="105" y="713" type="curve"/>
      <point x="108" y="789" type="line"/>
      <point x="-39" y="789"/>
      <point x="-155" y="722"/>
    </contour>
  </outline>
</glyph>
<glyph name="uniFE21" format="2">
  <unicode hex="FE21"/>
  <anchor x="53" y="536" name="_top"/>
  <outline>
    <contour>
      <point x="349" y="594" type="curve"/>
      <point x="408" y="594" type="line"/>
      <point x="362" y="725"/>
      <point x="252" y="789"/>
      <point x="121" y="789" type="curve" smooth="yes"/>
      <point x="107" y="789" type="line"/>
      <point x="103" y="713" type="line"/>
      <point x="119" y="713" type="line" smooth="yes"/>
      <point x="231" y="713"/>
      <point x="293" y="682"/>
    </contour>
  </outline>
</glyph>
<glyph name="uniFE22" format="2">
  <unicode hex="FE22"/>
  <anchor x="86" y="536" name="_top"/>
  <outline>
    <contour>
      <point x="-210" y="594" type="curve"/>
      <point x="-159" y="594" type="line"/>
      <point x="-136" y="644"/>
      <point x="-102" y="665"/>
      <point x="-51" y="665" type="curve" smooth="yes"/>
      <point x="10" y="665"/>
      <point x="53" y="649"/>
      <point x="106" y="628" type="curve"/>
      <point x="106" y="701" type="line"/>
      <point x="58" y="719"/>
      <point x="3" y="734"/>
      <point x="-52" y="734" type="curve" smooth="yes"/>
      <point x="-149" y="734"/>
      <point x="-190" y="669"/>
    </contour>
  </outline>
</glyph>
<glyph name="uniFE23" format="2">
  <unicode hex="FE23"/>
  <anchor x="65" y="536" name="_top"/>
  <outline>
    <contour>
      <point x="261" y="597" type="curve" smooth="yes"/>
      <point x="357" y="597"/>
      <point x="399" y="660"/>
      <point x="417" y="738" type="curve"/>
      <point x="367" y="738" type="line"/>
      <point x="347" y="682"/>
      <point x="311" y="667"/>
      <point x="259" y="667" type="curve" smooth="yes"/>
      <point x="214" y="667"/>
      <point x="154" y="681"/>
      <point x="101" y="703" type="curve"/>
      <point x="100" y="630" type="line"/>
      <point x="148" y="612"/>
      <point x="205" y="597"/>
    </contour>
  </outline>
</glyph>
<glyph name="combiningmacronlefthalf" format="2">
  <unicode hex="FE24"/>
  <anchor x="57" y="536" name="_top"/>
  <outline>
    <contour>
      <point x="86" y="672" type="line"/>
      <point x="387" y="672" type="line"/>
      <point x="405" y="745" type="line"/>
      <point x="103" y="745" type="line"/>
    </contour>
  </outline>
</glyph>
<glyph name="combiningconjoiningmacron" format="2">
  <unicode hex="FE26"/>
  <anchor x="57" y="536" name="_top"/>
  <outline>
    <contour>
      <point x="-207" y="672" type="line"/>
      <point x="377" y="672" type="line"/>
      <point x="395" y="745" type="line"/>
      <point x="-190" y="745" type="line"/>
    </contour>
  </outline>
</glyph>
<glyph name="uniFE27" format="2">
  <unicode hex="FE27"/>
  <anchor x="-57" y="0" name="_bottom"/>
  <outline>
    <contour>
      <point x="-102" y="-211" type="curve"/>
      <point x="-88" y="-143" type="line"/>
      <point x="-220" y="-143"/>
      <point x="-304" y="-105"/>
      <point x="-333" y="-26" type="curve"/>
      <point x="-384" y="-26" type="line"/>
      <point x="-350" y="-159"/>
      <point x="-257" y="-211"/>
    </contour>
  </outline>
</glyph>
<glyph name="uniFE29" format="2">
  <unicode hex="FE29"/>
  <anchor x="-57" y="0" name="_bottom"/>
  <outline>
    <contour>
      <point x="-424" y="-200" type="curve"/>
      <point x="-377" y="-200" type="line"/>
      <point x="-347" y="-152"/>
      <point x="-305" y="-131"/>
      <point x="-262" y="-131" type="curve" smooth="yes"/>
      <point x="-222" y="-131"/>
      <point x="-173" y="-144"/>
      <point x="-93" y="-170" type="curve"/>
      <point x="-77" y="-93" type="line"/>
      <point x="-134" y="-73"/>
      <point x="-190" y="-63"/>
      <point x="-244" y="-63" type="curve" smooth="yes"/>
      <point x="-322" y="-63"/>
      <point x="-387" y="-114"/>
    </contour>
  </outline>
</glyph>
<glyph name="uniFE2A" format="2">
  <unicode hex="FE2A"/>
  <anchor x="-57" y="0" name="_bottom"/>
  <outline>
    <contour>
      <point x="74" y="-200" type="curve" smooth="yes"/>
      <point x="151" y="-200"/>
      <point x="217" y="-149"/>
      <point x="255" y="-62" type="curve"/>
      <point x="207" y="-62" type="line"/>
      <point x="175" y="-110"/>
      <point x="136" y="-131"/>
      <point x="92" y="-131" type="curve" smooth="yes"/>
      <point x="52" y="-131"/>
      <point x="3" y="-119"/>
      <point x="-76" y="-93" type="curve"/>
      <point x="-92" y="-169" type="line"/>
      <point x="-36" y="-190"/>
      <point x="21" y="-200"/>
    </contour>
  </outline>
</glyph>
<glyph name="uniFE2C" format="2">
  <unicode hex="FE2C"/>
  <anchor x="-57" y="0" name="_bottom"/>
  <outline>
    <contour>
      <point x="-418" y="-205" type="line"/>
      <point x="-101" y="-205" type="line"/>
      <point x="-87" y="-138" type="line"/>
      <point x="-402" y="-138" type="line"/>
    </contour>
  </outline>
</glyph>
<glyph name="uniFE2D" format="2">
  <unicode hex="FE2D"/>
  <anchor x="-57" y="0" name="_bottom"/>
  <outline>
    <contour>
      <point x="-412" y="-205" type="line"/>
      <point x="210" y="-205" type="line"/>
      <point x="226" y="-138" type="line"/>
      <point x="-397" y="-138" type="line"/>
    </contour>
  </outline>
</glyph>
<glyph name="uniFE2E" format="2">
  <unicode hex="FE2E"/>
  <anchor x="-4" y="536" name="_top"/>
  <outline>
    <contour>
      <point x="5" y="569" type="curve" smooth="yes"/>
      <point x="30" y="569"/>
      <point x="43" y="587"/>
      <point x="48" y="616" type="curve"/>
      <point x="187" y="616" type="line"/>
      <point x="190" y="676" type="line"/>
      <point x="10" y="676" type="line" smooth="yes"/>
      <point x="-23" y="676"/>
      <point x="-36" y="648"/>
      <point x="-36" y="613" type="curve" smooth="yes"/>
      <point x="-36" y="584"/>
      <point x="-24" y="569"/>
    </contour>
  </outline>
</glyph>
<glyph name="uniFE2F" format="2">
  <unicode hex="FE2F"/>
  <anchor x="126" y="536" name="_top"/>
  <outline>
    <contour>
      <point x="-28" y="616" type="line"/>
      <point x="151" y="616" type="line" smooth="yes"/>
      <point x="182" y="616"/>
      <point x="197" y="642"/>
      <point x="197" y="675" type="curve" smooth="yes"/>
      <point x="197" y="708"/>
      <point x="183" y="723"/>
      <point x="156" y="723" type="curve" smooth="yes"/>
      <point x="131" y="723"/>
      <point x="117" y="705"/>
      <point x="113" y="676" type="curve"/>
      <point x="-26" y="676" type="line"/>
    </contour>
  </outline>
</glyph>
<glyph name="afii10084.loclSRB" format="2">
  <advance width="799"/>
  <anchor x="439" y="536" name="_top"/>
  <anchor x="465" y="679" name="top"/>
  <anchor x="343" y="0" name="bottom"/>
  <outline>
    <contour>
      <point x="195" y="606" type="line"/>
      <point x="706" y="606" type="line"/>
      <point x="722" y="679" type="line"/>
      <point x="211" y="679" type="line"/>
    </contour>
    <component base="afii10090"/>
  </outline>
</glyph>
<glyph name="lslash.sc" format="2">
  <advance width="466"/>
  <anchor x="176" y="0" name="bottom"/>
  <anchor x="298" y="571" name="top"/>
  <anchor x="234" y="286" name="center"/>
  <anchor x="508" y="571" name="topright"/>
  <outline>
    <contour>
      <point x="36" y="183" type="line"/>
      <point x="358" y="365" type="line"/>
      <point x="373" y="428" type="line"/>
      <point x="51" y="244" type="line"/>
    </contour>
    <component base="l.sc"/>
  </outline>
</glyph>
<glyph name="oslash.sc" format="2">
  <advance width="564"/>
  <anchor x="224" y="0" name="bottom"/>
  <anchor x="346" y="571" name="top"/>
  <anchor x="282" y="286" name="center"/>
  <anchor x="605" y="571" name="topright"/>
  <outline>
    <contour>
      <point x="62" y="-32" type="line"/>
      <point x="116" y="-32" type="line"/>
      <point x="557" y="604" type="line"/>
      <point x="504" y="604" type="line"/>
    </contour>
    <component base="o.sc"/>
  </outline>
</glyph>
